<svg width="32" height="32" viewBox="0 0 32 32" fill="none" xmlns="http://www.w3.org/2000/svg">
<rect width="32" height="32" rx="7.76853" fill="#FE3838"/>
<path fill-rule="evenodd" clip-rule="evenodd" d="M11.5234 7.5H20.5254C21.6109 7.5 22.5 8.39795 22.5 9.48593V22.9548C22.5 23.8626 21.9309 24.5 21.1559 24.5C20.7809 24.5 20.4317 24.3458 20.114 24.0714L16.0992 20.613C16.0961 20.6103 16.0674 20.6003 16.0303 20.6003C16.0179 20.6003 16.0064 20.6014 15.9964 20.603L15.9599 20.6139L11.9338 24.0713C11.6184 24.3438 11.2514 24.5 10.8761 24.5C10.4427 24.5 10.0385 24.2883 9.78973 23.9272C9.60039 23.6523 9.5 23.3179 9.5 22.9547V9.48593C9.5 8.39945 10.4358 7.5 11.5234 7.5ZM20.5275 8.80765H11.5253C11.1375 8.80765 10.7949 9.13695 10.7949 9.48588V22.9547C10.7949 23.0548 10.8168 23.1278 10.8525 23.1796C10.8586 23.1884 10.866 23.1922 10.8781 23.1922C10.9227 23.1922 11.0012 23.1588 11.0975 23.0756L15.1236 19.6183C15.3694 19.406 15.6975 19.2926 16.0323 19.2926C16.3671 19.2926 16.6948 19.406 16.9402 19.6181L20.9548 23.0763C21.0557 23.1633 21.1211 23.1922 21.158 23.1922C21.1878 23.1922 21.2091 23.1684 21.2091 22.9547V9.48588C21.2091 9.12056 20.8993 8.80765 20.5275 8.80765Z" fill="white"/>
</svg>
