<svg width="32" height="32" viewBox="0 0 32 32" fill="none" xmlns="http://www.w3.org/2000/svg">
<rect width="32" height="32" rx="7.76853" fill="#FE3838"/>
<path d="M16 7C14.22 7 12.4799 7.52784 10.9999 8.51677C9.51983 9.50571 8.36628 10.9113 7.68509 12.5558C7.0039 14.2004 6.82567 16.01 7.17294 17.7558C7.5202 19.5016 8.37737 21.1053 9.63604 22.364C10.8947 23.6226 12.4984 24.4798 14.2442 24.8271C15.99 25.1743 17.7996 24.9961 19.4442 24.3149C21.0887 23.6337 22.4943 22.4802 23.4832 21.0001C24.4722 19.5201 25 17.78 25 16C24.9972 13.6139 24.0481 11.3264 22.3609 9.63913C20.6736 7.95191 18.3861 7.0028 16 7ZM16 23.9412C14.4294 23.9412 12.894 23.4754 11.5881 22.6028C10.2822 21.7303 9.26436 20.49 8.66331 19.039C8.06226 17.5879 7.905 15.9912 8.21141 14.4508C8.51783 12.9103 9.27415 11.4953 10.3847 10.3847C11.4953 9.27415 12.9103 8.51782 14.4508 8.21141C15.9912 7.905 17.5879 8.06226 19.039 8.66331C20.49 9.26436 21.7303 10.2822 22.6028 11.5881C23.4754 12.894 23.9412 14.4294 23.9412 16C23.9388 18.1054 23.1014 20.1239 21.6127 21.6127C20.1239 23.1014 18.1054 23.9388 16 23.9412ZM21.4706 16C21.4706 16.1404 21.4148 16.2751 21.3155 16.3743C21.2162 16.4736 21.0816 16.5294 20.9412 16.5294H16C15.8596 16.5294 15.7249 16.4736 15.6257 16.3743C15.5264 16.2751 15.4706 16.1404 15.4706 16V11.0588C15.4706 10.9184 15.5264 10.7838 15.6257 10.6845C15.7249 10.5852 15.8596 10.5294 16 10.5294C16.1404 10.5294 16.2751 10.5852 16.3744 10.6845C16.4736 10.7838 16.5294 10.9184 16.5294 11.0588V15.4706H20.9412C21.0816 15.4706 21.2162 15.5264 21.3155 15.6256C21.4148 15.7249 21.4706 15.8596 21.4706 16Z" fill="white"/>
</svg>
